<?xml version="1.0" encoding="iso-8859-1"?>
<!-- Generator: Adobe Illustrator 19.0.0, SVG Export Plug-In . SVG Version: 6.00 Build 0)  -->
<svg version="1.1" id="Layer_1" xmlns="http://www.w3.org/2000/svg" xmlns:xlink="http://www.w3.org/1999/xlink" x="0px" y="0px"
	 viewBox="0 0 512 512" style="enable-background:new 0 0 512 512;" xml:space="preserve">
<g>
	<g>
		<path d="M469.779,0h-42.756c-4.428,0-8.017,3.589-8.017,8.017c0,4.427,3.588,8.017,8.017,8.017h42.756
			c14.441,0,26.188,11.748,26.188,26.188v427.557c0,14.44-11.747,26.188-26.188,26.188H42.221c-14.44,0-26.188-11.748-26.188-26.188
			V42.221c0-14.44,11.748-26.188,26.188-26.188h350.597c4.428,0,8.017-3.589,8.017-8.017c0-4.427-3.588-8.017-8.017-8.017H42.221
			C18.941,0,0,18.941,0,42.221v427.557C0,493.059,18.941,512,42.221,512h427.557C493.059,512,512,493.059,512,469.779V42.221
			C512,18.941,493.059,0,469.779,0z"/>
	</g>
</g>
<g>
	<g>
		<path d="M383.733,136.284V67.875c0-4.427-3.588-8.017-8.017-8.017h-76.96c-2.764,0-5.333,1.424-6.798,3.768l-40.401,64.641
			H136.284c-4.427,0-8.017,3.589-8.017,8.017v102.614c0,4.427,3.589,8.017,8.017,8.017h55.438l-11.301,22.603
			c-1.981,3.96-0.375,8.776,3.585,10.755c3.96,1.981,8.775,0.374,10.755-3.585l17.102-34.205c2.621-5.24-1.323-11.602-7.17-11.602
			h-60.392v-86.58H256c2.764,0,5.333-1.424,6.798-3.768l40.401-64.641h64.5v58.5l-67.563,135.126
			c-2.622,5.24,1.323,11.602,7.17,11.602h60.393v95.132H247.449c-3.207,0-6.106,1.911-7.369,4.858l-23.57,55h-72.209v-58.5
			l33.358-66.717c1.981-3.96,0.375-8.776-3.585-10.755c-3.96-1.981-8.776-0.375-10.755,3.585l-34.205,68.409
			c-0.557,1.114-0.847,2.34-0.847,3.585v68.409c0,4.427,3.589,8.017,8.017,8.017h85.511c3.207,0,6.106-1.911,7.369-4.858l23.57-55
			h122.982c4.428,0,8.017-3.589,8.017-8.017V273.102c0-4.427-3.588-8.017-8.017-8.017h-55.438l62.608-125.217
			C383.443,138.756,383.733,137.529,383.733,136.284z"/>
	</g>
</g>
<g>
</g>
<g>
</g>
<g>
</g>
<g>
</g>
<g>
</g>
<g>
</g>
<g>
</g>
<g>
</g>
<g>
</g>
<g>
</g>
<g>
</g>
<g>
</g>
<g>
</g>
<g>
</g>
<g>
</g>
</svg>
